P3
# This is an example bitmap of the letter "J"
12 12
255
  0   0   0   0   0   0   0   0   0   0   0   0   0   0   0   0   0   0   0   0   0   0   0   0   0   0   0   0   0   0   0   0   0   0   0   0
  0   0   0   0   0   0   0   0   0   0   0   0   0   0   0   0   0   0   0   0   0   0   0   0   0   0   0   0   0   0   0   0   0   0   0   0
  0   0   0 255 255 255 255 255 255 255 255 255 255 255 255 255 255 255 255 255 255 255 255 255 255 255 255 255 255 255 132 132 132   0   0   0
  0   0   0 255 255 255 255 255 255 255 255 255 255 255 255 255 255 255 255 255 255 255 255 255 255 255 255 255 255 255 255 255 255   0   0   0
  0   0   0 255 255 255 255 255 255 255 255 255 255 255 255 237  28  36 255 255 255 237  28  36 255 255 255 255 255 255 255 255 255   0   0   0
  0   0   0 255 255 255 255 255 255 255 255 255 255 255 255 237  28  36 237  28  36 237  28  36 255 255 255 255 255 255 255 255 255   0   0   0
  0   0   0 255 255 255 255 255 255 255 255 255 255 255 255 255 255 255 237  28  36 255 255 255 255 255 255 255 255 255 255 255 255   0   0   0
  0   0   0 255 255 255 255 255 255 255 255 255 255 255 255 255 255 255 255 255 255 255 255 255 255 255 255 255 255 255 255 255 255   0   0   0
  0   0   0 255 255 255 255 255 255 255 255 255 255 255 255 255 255 255 255 255 255 255 255 255 132 132 132   0   0   0   0   0   0   0   0   0
  0   0   0 255 255 255 255 255 255 255 255 255 132 132 132 255 255 255 255 255 255 255 255 255 255 255 255 255 255 255 255 255 255   0   0   0
  0   0   0 255 255 255 255 255 255 255 255 255   0   0   0   0   0   0   0   0   0 255 255 255 255 255 255 255 255 255 255 255 255   0   0   0
  0   0   0   0   0   0   0   0   0   0   0   0   0   0   0   0   0   0   0   0   0   0   0   0   0   0   0   0   0   0   0   0   0   0   0   0
